<!-- created by svgstack.com | Attribution is required. --><svg width="201" height="201" viewBox="0 0 201 201" fill="none" xmlns="http://www.w3.org/2000/svg"><g clip-path="url(#clip0_105_856)"><path d="M100.92 200.275C156.149 200.275 200.92 155.504 200.92 100.275C200.92 45.0467 156.149 0.275146 100.92 0.275146C45.6917 0.275146 0.920166 45.0467 0.920166 100.275C0.920166 155.504 45.6917 200.275 100.92 200.275Z" fill="#4581FE"/><mask id="mask0_105_856" style="mask-type:alpha" maskUnits="userSpaceOnUse" x="0" y="0" width="201" height="201"><path d="M100.92 200.275C156.149 200.275 200.92 155.504 200.92 100.275C200.92 45.0467 156.149 0.275146 100.92 0.275146C45.6917 0.275146 0.920166 45.0467 0.920166 100.275C0.920166 155.504 45.6917 200.275 100.92 200.275Z" fill="#D9D9D9"/></mask><g mask="url(#mask0_105_856)"><g filter="url(#filter0_f_105_856)"><path d="M140.749 108.073C144.478 84.4635 147.06 30.3442 160.666 21.2513C171.074 20.8269 205.01 27.2619 206.259 27.211C207.82 27.1473 240.063 50.8532 240.254 55.537C240.407 59.2838 233.901 104.274 230.629 126.3L247.384 230.391L147.692 201.617C143.964 199.684 110.885 204.057 119.272 194.957C129.754 183.583 136.335 136.024 140.749 108.073Z" fill="#FF3AF3"/></g><g filter="url(#filter1_f_105_856)"><path d="M140.749 108.073C144.478 84.4635 147.06 30.3442 160.666 21.2513C171.074 20.8269 205.01 27.2619 206.259 27.211C207.82 27.1473 240.063 50.8532 240.254 55.537C240.407 59.2838 233.901 104.274 230.629 126.3L247.384 230.391L147.692 201.617C143.964 199.684 110.885 204.057 119.272 194.957C129.754 183.583 136.335 136.024 140.749 108.073Z" fill="#FF3AF3"/></g><g filter="url(#filter2_f_105_856)"><path d="M77.4827 42.4626C81.2327 23.7125 119.149 -17.4333 124.358 -24.7249C114.503 -28.2727 68.9521 1.37638 55.608 62.7754C41.448 127.928 23.3164 115.379 11.8579 100.275C-3.76705 81.0044 -28.4546 54.0254 -2.20455 100.275C30.6079 158.088 39.9827 137.775 50.9202 136.213C61.8577 134.65 72.7952 65.9001 77.4827 42.4626Z" fill="#39FEC4"/></g><g filter="url(#filter3_f_105_856)"><path d="M77.4827 42.4626C81.2327 23.7125 119.149 -17.4333 124.358 -24.7249C114.503 -28.2727 68.9521 1.37638 55.608 62.7754C41.448 127.928 23.3164 115.379 11.8579 100.275C-3.76705 81.0044 -28.4546 54.0254 -2.20455 100.275C30.6079 158.088 39.9827 137.775 50.9202 136.213C61.8577 134.65 72.7952 65.9001 77.4827 42.4626Z" fill="#39FEC4"/></g><g filter="url(#filter4_f_105_856)"><path d="M35.2954 94.0247C65.5301 19.384 82.2561 -0.158824 99.3579 1.83722C77.4833 -2.85029 46.2326 36.2122 32.1701 62.7747C20.9201 84.0247 10.8162 77.879 7.17041 72.1497C-2.20457 62.7747 -16.5796 50.8997 0.920427 78.3997C18.4204 105.9 31.1288 100.275 35.2954 94.0247Z" fill="#FB44F4"/></g><g filter="url(#filter5_f_105_856)"><path d="M35.2954 94.0247C65.5301 19.384 82.2561 -0.158824 99.3579 1.83722C77.4833 -2.85029 46.2326 36.2122 32.1701 62.7747C20.9201 84.0247 10.8162 77.879 7.17041 72.1497C-2.20457 62.7747 -16.5796 50.8997 0.920427 78.3997C18.4204 105.9 31.1288 100.275 35.2954 94.0247Z" fill="#FB44F4"/></g><g filter="url(#filter6_f_105_856)"><path d="M35.2954 94.0247C65.5301 19.384 82.2561 -0.158824 99.3579 1.83722C77.4833 -2.85029 46.2326 36.2122 32.1701 62.7747C20.9201 84.0247 10.8162 77.879 7.17041 72.1497C-2.20457 62.7747 -16.5796 50.8997 0.920427 78.3997C18.4204 105.9 31.1288 100.275 35.2954 94.0247Z" fill="#FB44F4"/></g><g filter="url(#filter7_f_105_856)"><path d="M35.2954 94.0247C65.5301 19.384 82.2561 -0.158824 99.3579 1.83722C77.4833 -2.85029 46.2326 36.2122 32.1701 62.7747C20.9201 84.0247 10.8162 77.879 7.17041 72.1497C-2.20457 62.7747 -16.5796 50.8997 0.920427 78.3997C18.4204 105.9 31.1288 100.275 35.2954 94.0247Z" fill="#FB44F4"/></g><g filter="url(#filter8_f_105_856)"><path d="M20.4914 73.8073C32.8114 49.7351 58.5355 12.7908 69.8574 -2.67245C71.3496 -3.36907 72.7464 -4.89351 66.3946 -5.41838C58.4542 -6.07444 -19.9871 50.1692 -2.31457 67.0033C11.8235 80.4704 18.7803 77.1508 20.4914 73.8073Z" fill="#FFC21E"/></g><g filter="url(#filter9_f_105_856)"><path d="M20.4914 73.8073C32.8114 49.7351 58.5355 12.7908 69.8574 -2.67245C71.3496 -3.36907 72.7464 -4.89351 66.3946 -5.41838C58.4542 -6.07444 -19.9871 50.1692 -2.31457 67.0033C11.8235 80.4704 18.7803 77.1508 20.4914 73.8073Z" fill="#FFC21E"/></g><g filter="url(#filter10_f_105_856)"><path d="M20.4914 73.8073C32.8114 49.7351 58.5355 12.7908 69.8574 -2.67245C71.3496 -3.36907 72.7464 -4.89351 66.3946 -5.41838C58.4542 -6.07444 -19.9871 50.1692 -2.31457 67.0033C11.8235 80.4704 18.7803 77.1508 20.4914 73.8073Z" fill="#FFC21E"/></g><g filter="url(#filter11_f_105_856)"><path d="M20.4914 73.8073C32.8114 49.7351 58.5355 12.7908 69.8574 -2.67245C71.3496 -3.36907 72.7464 -4.89351 66.3946 -5.41838C58.4542 -6.07444 -19.9871 50.1692 -2.31457 67.0033C11.8235 80.4704 18.7803 77.1508 20.4914 73.8073Z" fill="#FFC21E"/></g><g filter="url(#filter12_f_105_856)"><path d="M20.4914 73.8073C32.8114 49.7351 58.5355 12.7908 69.8574 -2.67245C71.3496 -3.36907 72.7464 -4.89351 66.3946 -5.41838C58.4542 -6.07444 -19.9871 50.1692 -2.31457 67.0033C11.8235 80.4704 18.7803 77.1508 20.4914 73.8073Z" fill="#FFC21E"/></g><g filter="url(#filter13_f_105_856)"><path d="M20.4914 73.8073C32.8114 49.7351 58.5355 12.7908 69.8574 -2.67245C71.3496 -3.36907 72.7464 -4.89351 66.3946 -5.41838C58.4542 -6.07444 -19.9871 50.1692 -2.31457 67.0033C11.8235 80.4704 18.7803 77.1508 20.4914 73.8073Z" fill="#FFC21E"/></g><g filter="url(#filter14_f_105_856)"><path d="M20.4914 73.8073C32.8114 49.7351 58.5355 12.7908 69.8574 -2.67245C71.3496 -3.36907 72.7464 -4.89351 66.3946 -5.41838C58.4542 -6.07444 -19.9871 50.1692 -2.31457 67.0033C11.8235 80.4704 18.7803 77.1508 20.4914 73.8073Z" fill="#FFC21E"/></g><g filter="url(#filter15_f_105_856)"><path d="M20.4914 73.8073C32.8114 49.7351 58.5355 12.7908 69.8574 -2.67245C71.3496 -3.36907 72.7464 -4.89351 66.3946 -5.41838C58.4542 -6.07444 -19.9871 50.1692 -2.31457 67.0033C11.8235 80.4704 18.7803 77.1508 20.4914 73.8073Z" fill="#FFC21E"/></g></g></g><defs><filter id="filter0_f_105_856" x="69.9148" y="-26.7688" width="225.47" height="305.16" filterUnits="userSpaceOnUse" color-interpolation-filters="sRGB"><feFlood flood-opacity="0" result="BackgroundImageFix"/><feBlend mode="normal" in="SourceGraphic" in2="BackgroundImageFix" result="shape"/><feGaussianBlur stdDeviation="24" result="effect1_foregroundBlur_105_856"/></filter><filter id="filter1_f_105_856" x="69.9148" y="-26.7688" width="225.47" height="305.16" filterUnits="userSpaceOnUse" color-interpolation-filters="sRGB"><feFlood flood-opacity="0" result="BackgroundImageFix"/><feBlend mode="normal" in="SourceGraphic" in2="BackgroundImageFix" result="shape"/><feGaussianBlur stdDeviation="24" result="effect1_foregroundBlur_105_856"/></filter><filter id="filter2_f_105_856" x="-41.7236" y="-53.0095" width="194.081" height="221.938" filterUnits="userSpaceOnUse" color-interpolation-filters="sRGB"><feFlood flood-opacity="0" result="BackgroundImageFix"/><feBlend mode="normal" in="SourceGraphic" in2="BackgroundImageFix" result="shape"/><feGaussianBlur stdDeviation="14" result="effect1_foregroundBlur_105_856"/></filter><filter id="filter3_f_105_856" x="-41.7236" y="-53.0095" width="194.081" height="221.938" filterUnits="userSpaceOnUse" color-interpolation-filters="sRGB"><feFlood flood-opacity="0" result="BackgroundImageFix"/><feBlend mode="normal" in="SourceGraphic" in2="BackgroundImageFix" result="shape"/><feGaussianBlur stdDeviation="14" result="effect1_foregroundBlur_105_856"/></filter><filter id="filter4_f_105_856" x="-27.325" y="-18.5486" width="146.683" height="137.71" filterUnits="userSpaceOnUse" color-interpolation-filters="sRGB"><feFlood flood-opacity="0" result="BackgroundImageFix"/><feBlend mode="normal" in="SourceGraphic" in2="BackgroundImageFix" result="shape"/><feGaussianBlur stdDeviation="10" result="effect1_foregroundBlur_105_856"/></filter><filter id="filter5_f_105_856" x="-27.325" y="-18.5486" width="146.683" height="137.71" filterUnits="userSpaceOnUse" color-interpolation-filters="sRGB"><feFlood flood-opacity="0" result="BackgroundImageFix"/><feBlend mode="normal" in="SourceGraphic" in2="BackgroundImageFix" result="shape"/><feGaussianBlur stdDeviation="10" result="effect1_foregroundBlur_105_856"/></filter><filter id="filter6_f_105_856" x="-27.325" y="-18.5486" width="146.683" height="137.71" filterUnits="userSpaceOnUse" color-interpolation-filters="sRGB"><feFlood flood-opacity="0" result="BackgroundImageFix"/><feBlend mode="normal" in="SourceGraphic" in2="BackgroundImageFix" result="shape"/><feGaussianBlur stdDeviation="10" result="effect1_foregroundBlur_105_856"/></filter><filter id="filter7_f_105_856" x="-27.325" y="-18.5486" width="146.683" height="137.71" filterUnits="userSpaceOnUse" color-interpolation-filters="sRGB"><feFlood flood-opacity="0" result="BackgroundImageFix"/><feBlend mode="normal" in="SourceGraphic" in2="BackgroundImageFix" result="shape"/><feGaussianBlur stdDeviation="10" result="effect1_foregroundBlur_105_856"/></filter><filter id="filter8_f_105_856" x="-24.8997" y="-25.4241" width="116.021" height="122.204" filterUnits="userSpaceOnUse" color-interpolation-filters="sRGB"><feFlood flood-opacity="0" result="BackgroundImageFix"/><feBlend mode="normal" in="SourceGraphic" in2="BackgroundImageFix" result="shape"/><feGaussianBlur stdDeviation="10" result="effect1_foregroundBlur_105_856"/></filter><filter id="filter9_f_105_856" x="-24.8997" y="-25.4241" width="116.021" height="122.204" filterUnits="userSpaceOnUse" color-interpolation-filters="sRGB"><feFlood flood-opacity="0" result="BackgroundImageFix"/><feBlend mode="normal" in="SourceGraphic" in2="BackgroundImageFix" result="shape"/><feGaussianBlur stdDeviation="10" result="effect1_foregroundBlur_105_856"/></filter><filter id="filter10_f_105_856" x="-24.8997" y="-25.4241" width="116.021" height="122.204" filterUnits="userSpaceOnUse" color-interpolation-filters="sRGB"><feFlood flood-opacity="0" result="BackgroundImageFix"/><feBlend mode="normal" in="SourceGraphic" in2="BackgroundImageFix" result="shape"/><feGaussianBlur stdDeviation="10" result="effect1_foregroundBlur_105_856"/></filter><filter id="filter11_f_105_856" x="-24.8997" y="-25.4241" width="116.021" height="122.204" filterUnits="userSpaceOnUse" color-interpolation-filters="sRGB"><feFlood flood-opacity="0" result="BackgroundImageFix"/><feBlend mode="normal" in="SourceGraphic" in2="BackgroundImageFix" result="shape"/><feGaussianBlur stdDeviation="10" result="effect1_foregroundBlur_105_856"/></filter><filter id="filter12_f_105_856" x="-24.8997" y="-25.4241" width="116.021" height="122.204" filterUnits="userSpaceOnUse" color-interpolation-filters="sRGB"><feFlood flood-opacity="0" result="BackgroundImageFix"/><feBlend mode="normal" in="SourceGraphic" in2="BackgroundImageFix" result="shape"/><feGaussianBlur stdDeviation="10" result="effect1_foregroundBlur_105_856"/></filter><filter id="filter13_f_105_856" x="-24.8997" y="-25.4241" width="116.021" height="122.204" filterUnits="userSpaceOnUse" color-interpolation-filters="sRGB"><feFlood flood-opacity="0" result="BackgroundImageFix"/><feBlend mode="normal" in="SourceGraphic" in2="BackgroundImageFix" result="shape"/><feGaussianBlur stdDeviation="10" result="effect1_foregroundBlur_105_856"/></filter><filter id="filter14_f_105_856" x="-24.8997" y="-25.4241" width="116.021" height="122.204" filterUnits="userSpaceOnUse" color-interpolation-filters="sRGB"><feFlood flood-opacity="0" result="BackgroundImageFix"/><feBlend mode="normal" in="SourceGraphic" in2="BackgroundImageFix" result="shape"/><feGaussianBlur stdDeviation="10" result="effect1_foregroundBlur_105_856"/></filter><filter id="filter15_f_105_856" x="-24.8997" y="-25.4241" width="116.021" height="122.204" filterUnits="userSpaceOnUse" color-interpolation-filters="sRGB"><feFlood flood-opacity="0" result="BackgroundImageFix"/><feBlend mode="normal" in="SourceGraphic" in2="BackgroundImageFix" result="shape"/><feGaussianBlur stdDeviation="10" result="effect1_foregroundBlur_105_856"/></filter><clipPath id="clip0_105_856"><rect width="200" height="200" fill="white" transform="translate(0.920166 0.275146)"/></clipPath></defs></svg> 